<svg width="303" height="303" viewBox="0 0 303 303" fill="none" xmlns="http://www.w3.org/2000/svg">
<path d="M282 152.744C282 -18.9695 15.5769 -26.8051 18.6921 152.712C-16.8677 199.359 -11.4848 301.692 122.406 298.946C225.697 296.827 282 262.925 282 152.744Z" fill="#F4C29E"/>
<path d="M238.574 180.571L173.577 176.818C169.324 176.572 166 173.051 166 168.79C166 164.067 170.051 160.362 174.755 160.781L239.603 166.569C243.225 166.892 246 169.926 246 173.562C246 177.599 242.604 180.804 238.574 180.571Z" fill="#353332"/>
<path d="M31.4507 177.547L92.4556 173.839C96.6943 173.581 100 170.068 100 165.822C100 161.089 95.9288 157.382 91.217 157.825L30.3675 163.542C26.7584 163.881 24 166.911 24 170.536C24 174.583 27.411 177.793 31.4507 177.547Z" fill="#353332"/>
<path d="M88.7669 261.311C108.286 249.293 148.038 253.029 148.99 265.696C149.943 278.364 79.9595 276.253 88.7669 261.311Z" fill="#DF6464"/>
<mask id="mask0_161_90" style="mask-type:alpha" maskUnits="userSpaceOnUse" x="88" y="254" width="61" height="20">
<path d="M88.8344 261.2C108.33 249.505 148.033 253.14 148.984 265.467C149.935 277.794 80.0378 275.739 88.8344 261.2Z" fill="#AA4040"/>
</mask>
<g mask="url(#mask0_161_90)">
<path d="M133.339 258.739C118.931 261.031 106.967 271.855 106.685 279.471L157.879 273.124C153.225 268.47 151.956 255.777 133.339 258.739Z" fill="#FF8383"/>
</g>
<path d="M103.798 22.8423C53.0648 -9.61708 107.192 -6.50055 205.699 25.9588C263.196 37.9736 269.397 58.7411 265.31 67.6229C267.565 71.1757 276.302 83.029 293.213 102.02C314.352 125.759 296.596 152.405 283.49 179.535C273.005 201.239 271.511 170.492 272.075 152.405C262.604 179.535 251.5 136.902 247.131 112.194C236.646 142.425 221.06 104.442 214.577 81.6725C210.772 85.0638 209.532 84.8761 194.729 87.8301C151.098 110.309 147.079 86.3647 149.475 72.6381C80.4778 92.792 88.1537 78.4427 99.5686 67.6229C88.8583 69.3993 71.9014 88.6488 52.6228 81.6725C14.5588 72.6381 25.1732 46.9523 65.337 46.3064C19.2111 22.8423 57.1517 8.14672 103.798 22.8423Z" fill="#353332"/>
<line x1="38.8114" y1="190.148" x2="31.7474" y2="202.646" stroke="#FF0000" stroke-opacity="0.2" stroke-width="8" stroke-linecap="round"/>
<line x1="58.2737" y1="190.148" x2="51.2097" y2="202.646" stroke="#FF0000" stroke-opacity="0.2" stroke-width="8" stroke-linecap="round"/>
<line x1="76.0436" y1="190.148" x2="68.9796" y2="202.646" stroke="#FF0000" stroke-opacity="0.2" stroke-width="8" stroke-linecap="round"/>
<line x1="191.125" y1="190.148" x2="184.061" y2="202.646" stroke="#FF0000" stroke-opacity="0.2" stroke-width="8" stroke-linecap="round"/>
<line x1="210.587" y1="190.148" x2="203.523" y2="202.646" stroke="#FF0000" stroke-opacity="0.2" stroke-width="8" stroke-linecap="round"/>
<line x1="228.357" y1="190.148" x2="221.293" y2="202.646" stroke="#FF0000" stroke-opacity="0.2" stroke-width="8" stroke-linecap="round"/>
<path d="M300 199.5C303 173.5 278.333 173 267 190.5C257.667 190.5 254.3 193.3 269.5 210.5C288.5 232 298.5 212.5 300 199.5Z" fill="#F4C29E"/>
<path d="M114 181.5C114 181.5 89.8401 199.5 105.34 215.5" stroke="#DB5A49" stroke-opacity="0.5" stroke-width="11" stroke-linecap="round"/>
<path d="M160 121C173.667 119.333 204.3 118.4 217.5 128M92.5 121C77.8333 116.167 59 111.5 42.5 121" stroke="#353332" stroke-width="11" stroke-linecap="round"/>
<path d="M145 272V297" stroke="#A8D5FF" stroke-width="11" stroke-linecap="round"/>
<circle cx="172" cy="246" r="35" fill="#F4C29E"/>
</svg>
