<svg xmlns="http://www.w3.org/2000/svg" width="1232" height="381" viewBox="0 0 1232 381" fill="none">
  <path d="M200.18 176.003C25.5125 194.595 -14.5547 60.5987 4.22759 3.083C4.74597 1.4956 6.23706 0.5 7.90696 0.5H1227.51C1229.77 0.5 1231.58 2.42313 1231.46 4.6747C1224.38 139.029 1067.11 178.022 1025.64 175.887C1023.41 175.772 1021.37 177.379 1021.03 179.584C994.044 351.76 785.029 370.561 737.787 336.202C736.418 335.207 734.606 335.086 733.132 335.917C592.449 415.181 509.429 372.675 466.809 335.962C465.75 335.049 464.258 334.775 462.922 335.187C264.108 396.471 208.702 260.746 204.792 179.844C204.679 177.491 202.522 175.754 200.18 176.003Z" fill="white"/>
</svg>