<svg width="228" height="110" viewBox="0 0 228 110" fill="none" xmlns="http://www.w3.org/2000/svg">
<g filter="url(#filter0_d_158_97)">
<rect x="15" y="39" width="198" height="56" rx="28" fill="white"/>
<rect x="7.5" y="31.5" width="213" height="71" rx="35.5" stroke="#FFF5DA" stroke-width="15"/>
</g>
<path d="M55.486 84.256C55.262 84.224 54.958 84.08 54.574 83.824C54.19 83.568 53.806 83.28 53.422 82.96C53.038 82.672 52.75 82.448 52.558 82.288C52.334 81.744 52.174 81.328 52.078 81.04C51.982 80.752 51.982 80.272 52.078 79.6C52.078 79.216 52.11 78.768 52.174 78.256C52.27 77.744 52.43 77.328 52.654 77.008C52.878 76.368 53.23 75.616 53.71 74.752C54.222 73.888 54.766 73.024 55.342 72.16C55.95 71.296 56.51 70.512 57.022 69.808C57.566 69.072 57.966 68.544 58.222 68.224C58.574 67.776 58.734 67.408 58.702 67.12C58.702 66.8 58.382 66.208 57.742 65.344C57.614 64.992 57.47 64.736 57.31 64.576C57.15 64.384 57.134 64.288 57.262 64.288C57.262 64.288 57.214 64.24 57.118 64.144C57.054 64.016 56.974 63.84 56.878 63.616C56.398 63.168 56.158 62.48 56.158 61.552C56.19 60.624 56.43 59.712 56.878 58.816C57.39 57.664 58.078 56.672 58.942 55.84C59.806 55.008 60.718 54.528 61.678 54.4C62.03 54.432 62.638 54.528 63.502 54.688C64.398 54.848 65.31 55.024 66.238 55.216C67.198 55.408 67.95 55.632 68.494 55.888C68.878 56.048 69.374 56.336 69.982 56.752C70.622 57.168 71.198 57.584 71.71 58C72.222 58.416 72.494 58.72 72.526 58.912C72.526 59.008 72.574 59.12 72.67 59.248C72.798 59.344 72.878 59.472 72.91 59.632C73.102 59.984 73.198 60.464 73.198 61.072C73.23 61.68 73.198 62.272 73.102 62.848C73.006 63.424 72.862 63.856 72.67 64.144C71.87 65.04 71.31 65.552 70.99 65.68C70.83 65.808 70.638 65.968 70.414 66.16C70.222 66.352 69.998 66.48 69.742 66.544C69.582 66.768 69.422 66.96 69.262 67.12C69.134 67.28 69.006 67.36 68.878 67.36C68.75 67.264 68.622 67.216 68.494 67.216C68.366 67.184 68.302 67.232 68.302 67.36C68.302 67.424 68.078 67.568 67.63 67.792C67.214 68.016 66.782 68.208 66.334 68.368C65.886 68.528 65.598 68.576 65.47 68.512C65.47 68.512 65.422 68.512 65.326 68.512C65.23 68.512 65.086 68.576 64.894 68.704C64.478 68.64 64.718 69.152 65.614 70.24C66.35 71.616 66.894 72.944 67.246 74.224C67.63 75.472 67.582 76.432 67.102 77.104C66.494 78.48 65.838 79.616 65.134 80.512C64.43 81.376 63.87 81.792 63.454 81.76C63.454 81.76 63.374 81.808 63.214 81.904C63.086 82 62.942 82.096 62.782 82.192C62.718 82.416 62.574 82.56 62.35 82.624C62.158 82.72 61.982 82.752 61.822 82.72C61.534 82.592 61.038 82.752 60.334 83.2C59.918 83.488 59.374 83.728 58.702 83.92C58.03 84.112 57.374 84.24 56.734 84.304C56.126 84.368 55.71 84.352 55.486 84.256ZM56.59 80.608C56.91 80.64 57.326 80.56 57.838 80.368C58.382 80.176 58.942 79.92 59.518 79.6C60.126 79.28 60.67 78.96 61.15 78.64C62.174 77.84 62.862 77.04 63.214 76.24C63.598 75.44 63.63 74.64 63.31 73.84C63.118 73.456 62.91 73.04 62.686 72.592C62.462 72.144 62.27 71.792 62.11 71.536C61.918 71.248 61.742 71.04 61.582 70.912C61.454 70.784 61.31 70.672 61.15 70.576C61.15 70.576 61.07 70.688 60.91 70.912C60.782 71.104 60.638 71.376 60.478 71.728C60.126 72.176 59.918 72.448 59.854 72.544C59.79 72.64 59.694 72.8 59.566 73.024C59.342 73.248 59.134 73.456 58.942 73.648C58.75 73.84 58.606 73.984 58.51 74.08C58.51 74.176 58.414 74.464 58.222 74.944C58.03 75.392 57.806 75.84 57.55 76.288C56.846 77.504 56.398 78.512 56.206 79.312C56.046 80.112 56.174 80.544 56.59 80.608ZM64.03 64.96C64.702 64.352 65.23 64 65.614 63.904C65.998 63.808 66.286 63.936 66.478 64.288C66.542 64.416 66.846 64.336 67.39 64.048C67.966 63.728 68.51 63.296 69.022 62.752C69.214 62.4 69.262 62.224 69.166 62.224C69.102 62.224 69.038 61.968 68.974 61.456C69.006 61.136 69.006 60.88 68.974 60.688C68.942 60.496 68.798 60.304 68.542 60.112C68.286 59.92 67.822 59.696 67.15 59.44C65.166 58.736 63.646 58.512 62.59 58.768C61.534 58.992 60.798 59.664 60.382 60.784C60.19 61.392 60.094 61.888 60.094 62.272C60.094 62.656 60.222 63.12 60.478 63.664C60.766 63.792 60.958 63.968 61.054 64.192C61.15 64.384 61.198 64.48 61.198 64.48C61.198 64.768 61.326 64.912 61.582 64.912C61.646 65.072 61.87 65.248 62.254 65.44C62.638 65.632 63.23 65.472 64.03 64.96ZM79.5434 69.424C78.8714 69.648 78.3114 69.76 77.8634 69.76C77.4154 69.728 76.9194 69.52 76.3754 69.136C75.7354 68.496 75.5274 67.856 75.7514 67.216C75.9754 66.544 76.5514 65.888 77.4794 65.248C78.1194 64.864 78.5834 64.672 78.8714 64.672C79.1914 64.64 79.6554 64.752 80.2634 65.008C81.3194 65.68 81.7834 66.432 81.6554 67.264C81.5594 68.064 80.8554 68.784 79.5434 69.424ZM76.1834 79.504C75.5114 79.728 74.9514 79.84 74.5034 79.84C74.0554 79.808 73.5594 79.6 73.0154 79.216C72.3754 78.576 72.1674 77.936 72.3914 77.296C72.6154 76.624 73.1914 75.968 74.1194 75.328C74.7594 74.944 75.2234 74.752 75.5114 74.752C75.8314 74.72 76.2954 74.832 76.9034 75.088C77.9594 75.76 78.4234 76.512 78.2954 77.344C78.1994 78.144 77.4954 78.864 76.1834 79.504ZM91.939 81.856C91.715 81.856 91.299 81.776 90.691 81.616C90.115 81.456 89.507 81.264 88.867 81.04C88.259 80.784 87.779 80.512 87.427 80.224C86.339 79.296 85.555 78.272 85.075 77.152C84.595 76 84.307 74.832 84.211 73.648C84.147 72.464 84.195 71.344 84.355 70.288C84.707 68.24 85.443 66.208 86.563 64.192C87.683 62.144 89.027 60.448 90.595 59.104C91.427 58.368 92.259 57.744 93.091 57.232C93.923 56.72 94.819 56.352 95.779 56.128C96.131 56.032 96.627 55.984 97.267 55.984C97.939 55.952 98.387 55.936 98.611 55.936C99.251 55.936 99.955 56.08 100.723 56.368C101.523 56.624 102.211 56.944 102.787 57.328C103.363 57.68 103.651 58.016 103.651 58.336C103.651 58.56 103.635 58.784 103.603 59.008C103.571 59.232 103.427 59.28 103.171 59.152H102.691L103.171 60.592C103.299 60.848 103.411 61.2 103.507 61.648C103.603 62.064 103.651 62.448 103.651 62.8C103.651 63.12 103.603 63.6 103.507 64.24C103.443 64.848 103.331 65.504 103.171 66.208C103.043 66.912 102.899 67.568 102.739 68.176C102.611 68.784 102.483 69.232 102.355 69.52C102.259 69.712 102.195 69.904 102.163 70.096C102.163 70.256 102.163 70.4 102.163 70.528C102.035 70.784 101.827 71.232 101.539 71.872C101.251 72.512 101.043 72.96 100.915 73.216C100.787 73.344 100.675 73.456 100.579 73.552C100.515 73.648 100.547 73.76 100.675 73.888C100.675 73.984 100.595 74.208 100.435 74.56C100.275 74.88 100.099 75.184 99.907 75.472C99.747 75.76 99.619 75.904 99.523 75.904C99.523 75.904 99.475 75.92 99.379 75.952C99.315 75.952 99.283 76 99.283 76.096C99.283 76.224 99.059 76.56 98.611 77.104C98.195 77.648 97.699 78.208 97.123 78.784C96.803 79.104 96.291 79.52 95.587 80.032C94.883 80.512 94.179 80.944 93.475 81.328C92.803 81.68 92.291 81.856 91.939 81.856ZM91.843 77.248C92.195 77.248 92.531 77.2 92.851 77.104C93.171 76.976 93.443 76.8 93.667 76.576C94.243 76.192 94.787 75.68 95.299 75.04C95.843 74.4 96.291 73.664 96.643 72.832C96.995 72.352 97.267 71.856 97.459 71.344C97.683 70.8 98.019 69.888 98.467 68.608C98.723 68.256 98.899 67.824 98.995 67.312C99.091 66.8 99.139 66.368 99.139 66.016C99.139 65.664 99.139 65.184 99.139 64.576C99.171 63.968 99.251 63.456 99.379 63.04C99.379 62.208 99.363 61.728 99.331 61.6C99.299 61.44 99.171 61.232 98.947 60.976C98.819 60.88 98.643 60.784 98.419 60.688C98.227 60.592 98.019 60.544 97.795 60.544C97.571 60.544 97.267 60.608 96.883 60.736C96.531 60.832 96.227 60.96 95.971 61.12C95.747 61.248 95.491 61.264 95.203 61.168C94.947 61.072 94.819 60.944 94.819 60.784C94.819 60.336 94.595 60.368 94.147 60.88C93.731 61.36 93.171 62.032 92.467 62.896C91.891 63.472 91.395 64.064 90.979 64.672C90.595 65.248 90.403 65.6 90.403 65.728C90.403 65.856 90.355 66.016 90.259 66.208C90.163 66.4 90.067 66.624 89.971 66.88C89.811 67.104 89.619 67.472 89.395 67.984C89.171 68.496 88.947 69.008 88.723 69.52C88.531 70 88.403 70.368 88.339 70.624C88.339 70.752 88.339 71.104 88.339 71.68C88.339 72.224 88.339 72.736 88.339 73.216C88.339 73.76 88.355 74.16 88.387 74.416C88.419 74.672 88.467 74.88 88.531 75.04C88.627 75.2 88.755 75.44 88.915 75.76C89.043 75.984 89.235 76.256 89.491 76.576C89.779 76.864 89.971 77.072 90.067 77.2C90.419 77.52 90.643 77.648 90.739 77.584C90.867 77.488 91.235 77.376 91.843 77.248ZM113.548 81.856C113.324 81.856 112.908 81.776 112.3 81.616C111.724 81.456 111.116 81.264 110.476 81.04C109.868 80.784 109.388 80.512 109.036 80.224C107.948 79.296 107.164 78.272 106.684 77.152C106.204 76 105.916 74.832 105.82 73.648C105.756 72.464 105.804 71.344 105.964 70.288C106.316 68.24 107.052 66.208 108.172 64.192C109.292 62.144 110.636 60.448 112.204 59.104C113.036 58.368 113.868 57.744 114.7 57.232C115.532 56.72 116.428 56.352 117.388 56.128C117.74 56.032 118.236 55.984 118.876 55.984C119.548 55.952 119.996 55.936 120.22 55.936C120.86 55.936 121.564 56.08 122.332 56.368C123.132 56.624 123.82 56.944 124.396 57.328C124.972 57.68 125.26 58.016 125.26 58.336C125.26 58.56 125.244 58.784 125.212 59.008C125.18 59.232 125.036 59.28 124.78 59.152H124.3L124.78 60.592C124.908 60.848 125.02 61.2 125.116 61.648C125.212 62.064 125.26 62.448 125.26 62.8C125.26 63.12 125.212 63.6 125.116 64.24C125.052 64.848 124.94 65.504 124.78 66.208C124.652 66.912 124.508 67.568 124.348 68.176C124.22 68.784 124.092 69.232 123.964 69.52C123.868 69.712 123.804 69.904 123.772 70.096C123.772 70.256 123.772 70.4 123.772 70.528C123.644 70.784 123.436 71.232 123.148 71.872C122.86 72.512 122.652 72.96 122.524 73.216C122.396 73.344 122.284 73.456 122.188 73.552C122.124 73.648 122.156 73.76 122.284 73.888C122.284 73.984 122.204 74.208 122.044 74.56C121.884 74.88 121.708 75.184 121.516 75.472C121.356 75.76 121.228 75.904 121.132 75.904C121.132 75.904 121.084 75.92 120.988 75.952C120.924 75.952 120.892 76 120.892 76.096C120.892 76.224 120.668 76.56 120.22 77.104C119.804 77.648 119.308 78.208 118.732 78.784C118.412 79.104 117.9 79.52 117.196 80.032C116.492 80.512 115.788 80.944 115.084 81.328C114.412 81.68 113.9 81.856 113.548 81.856ZM113.452 77.248C113.804 77.248 114.14 77.2 114.46 77.104C114.78 76.976 115.052 76.8 115.276 76.576C115.852 76.192 116.396 75.68 116.908 75.04C117.452 74.4 117.9 73.664 118.252 72.832C118.604 72.352 118.876 71.856 119.068 71.344C119.292 70.8 119.628 69.888 120.076 68.608C120.332 68.256 120.508 67.824 120.604 67.312C120.7 66.8 120.748 66.368 120.748 66.016C120.748 65.664 120.748 65.184 120.748 64.576C120.78 63.968 120.86 63.456 120.988 63.04C120.988 62.208 120.972 61.728 120.94 61.6C120.908 61.44 120.78 61.232 120.556 60.976C120.428 60.88 120.252 60.784 120.028 60.688C119.836 60.592 119.628 60.544 119.404 60.544C119.18 60.544 118.876 60.608 118.492 60.736C118.14 60.832 117.836 60.96 117.58 61.12C117.356 61.248 117.1 61.264 116.812 61.168C116.556 61.072 116.428 60.944 116.428 60.784C116.428 60.336 116.204 60.368 115.756 60.88C115.34 61.36 114.78 62.032 114.076 62.896C113.5 63.472 113.004 64.064 112.588 64.672C112.204 65.248 112.012 65.6 112.012 65.728C112.012 65.856 111.964 66.016 111.868 66.208C111.772 66.4 111.676 66.624 111.58 66.88C111.42 67.104 111.228 67.472 111.004 67.984C110.78 68.496 110.556 69.008 110.332 69.52C110.14 70 110.012 70.368 109.948 70.624C109.948 70.752 109.948 71.104 109.948 71.68C109.948 72.224 109.948 72.736 109.948 73.216C109.948 73.76 109.964 74.16 109.996 74.416C110.028 74.672 110.076 74.88 110.14 75.04C110.236 75.2 110.364 75.44 110.524 75.76C110.652 75.984 110.844 76.256 111.1 76.576C111.388 76.864 111.58 77.072 111.676 77.2C112.028 77.52 112.252 77.648 112.348 77.584C112.476 77.488 112.844 77.376 113.452 77.248ZM135.647 93.184C135.519 93.184 135.327 93.184 135.071 93.184C134.847 93.216 134.655 93.088 134.495 92.8C134.367 92.64 134.175 92.32 133.919 91.84C133.663 91.392 133.615 90.752 133.775 89.92C133.935 89.376 134.063 88.832 134.159 88.288C134.255 87.776 134.303 87.392 134.303 87.136C134.303 87.008 134.335 86.752 134.399 86.368C134.495 86.016 134.543 85.76 134.543 85.6C134.703 85.344 134.831 84.992 134.927 84.544C135.023 84.096 135.071 83.696 135.071 83.344C135.071 82.96 135.263 82.608 135.647 82.288C135.647 82.032 135.695 81.712 135.791 81.328C135.919 80.944 135.983 80.688 135.983 80.56C136.079 80.112 136.287 79.328 136.607 78.208C136.959 77.056 137.375 75.76 137.855 74.32C138.367 72.88 138.863 71.472 139.343 70.096C139.823 68.72 140.255 67.552 140.639 66.592C141.023 65.696 141.343 64.864 141.599 64.096C141.855 63.328 141.983 62.784 141.983 62.464C141.983 62.336 142.015 62.24 142.079 62.176C142.143 62.08 142.287 61.904 142.511 61.648C142.831 61.328 143.247 61.216 143.759 61.312C144.303 61.376 144.751 61.536 145.103 61.792C145.359 62.208 145.535 62.592 145.631 62.944C145.759 63.264 145.759 63.776 145.631 64.48C145.631 64.96 145.519 65.408 145.295 65.824C145.071 66.208 144.863 66.528 144.671 66.784C144.511 67.008 144.463 67.104 144.527 67.072C145.935 66.208 147.199 65.744 148.319 65.68C149.471 65.584 150.431 65.776 151.199 66.256C151.999 66.704 152.607 67.328 153.023 68.128C153.439 68.928 153.647 69.792 153.647 70.72C153.647 71.104 153.519 71.616 153.263 72.256C153.007 72.896 152.719 73.504 152.399 74.08C152.079 74.624 151.823 74.992 151.631 75.184C151.503 75.184 151.375 75.296 151.247 75.52C151.119 75.712 150.991 75.936 150.863 76.192C150.607 76.512 150.175 76.88 149.567 77.296C148.991 77.68 148.399 78 147.791 78.256C147.183 78.48 146.751 78.544 146.495 78.448C146.495 78.448 146.447 78.48 146.351 78.544C146.287 78.608 146.255 78.72 146.255 78.88C146.255 78.944 146.031 79.072 145.583 79.264C145.135 79.456 144.607 79.632 143.999 79.792C143.391 79.952 142.831 80.032 142.319 80.032C141.647 80.032 141.167 79.904 140.879 79.648C140.815 79.712 140.735 79.808 140.639 79.936C140.575 80.064 140.543 80.176 140.543 80.272C140.543 80.464 140.463 80.768 140.303 81.184C140.175 81.6 140.015 81.968 139.823 82.288C139.631 82.64 139.455 82.816 139.295 82.816C139.295 82.816 139.263 82.864 139.199 82.96C139.135 83.056 139.167 83.184 139.295 83.344C139.295 83.344 139.279 83.52 139.247 83.872C139.247 84.256 139.167 84.576 139.007 84.832C139.007 85.088 138.959 85.472 138.863 85.984C138.767 86.496 138.655 86.88 138.527 87.136C138.527 87.52 138.463 87.888 138.335 88.24C138.239 88.624 138.127 88.816 137.999 88.816C137.871 88.848 137.791 89.04 137.759 89.392C137.727 89.776 137.711 90.048 137.711 90.208C137.679 91.008 137.423 91.696 136.943 92.272C136.463 92.88 136.031 93.184 135.647 93.184ZM141.791 76.384C142.047 76.384 142.511 76.272 143.183 76.048C143.855 75.824 144.559 75.552 145.295 75.232C146.031 74.88 146.607 74.528 147.023 74.176C147.855 73.44 148.495 72.72 148.943 72.016C149.423 71.312 149.391 70.528 148.847 69.664C148.591 69.216 148.175 69.04 147.599 69.136C147.055 69.2 146.447 69.456 145.775 69.904C145.103 70.352 144.415 70.912 143.711 71.584C143.327 72 142.975 72.48 142.655 73.024C142.335 73.568 142.063 74.096 141.839 74.608C141.647 75.12 141.535 75.552 141.503 75.904C141.471 76.224 141.567 76.384 141.791 76.384ZM157.003 80.224C156.907 80.096 156.699 79.936 156.379 79.744C156.059 79.552 155.899 79.392 155.899 79.264C155.899 79.2 155.883 79.12 155.851 79.024C155.851 78.928 155.787 78.88 155.659 78.88C155.563 78.784 155.611 78.432 155.803 77.824C156.027 77.216 156.315 76.496 156.667 75.664C157.051 74.832 157.451 74.032 157.867 73.264C158.283 72.464 158.635 71.824 158.923 71.344C159.083 71.248 159.179 71.12 159.211 70.96C159.275 70.768 159.275 70.672 159.211 70.672C159.211 70.672 159.291 70.528 159.451 70.24C159.643 69.92 159.787 69.712 159.883 69.616C160.139 69.168 160.331 68.72 160.459 68.272C160.587 67.792 160.619 67.392 160.555 67.072C160.427 66.912 160.283 66.864 160.123 66.928C159.963 66.992 159.883 67.024 159.883 67.024C159.755 67.056 159.563 67.12 159.307 67.216C159.083 67.28 158.875 67.376 158.683 67.504C157.947 68.016 157.403 68.272 157.051 68.272C156.731 68.272 156.411 67.888 156.091 67.12C155.963 66.768 155.915 66.432 155.947 66.112C155.979 65.792 156.107 65.536 156.331 65.344C156.587 65.12 156.907 64.896 157.291 64.672C157.675 64.416 157.931 64.24 158.059 64.144C158.411 63.92 158.907 63.68 159.547 63.424C160.187 63.168 160.571 63.024 160.699 62.992C161.531 62.736 162.235 62.736 162.811 62.992C163.387 63.216 163.819 63.664 164.107 64.336C164.555 64.88 164.779 65.456 164.779 66.064C164.779 66.672 164.555 67.424 164.107 68.32L163.627 69.04C163.467 69.36 163.435 69.52 163.531 69.52C163.659 69.52 163.803 69.408 163.963 69.184C164.059 69.056 164.251 68.864 164.539 68.608C164.827 68.352 165.019 68.224 165.115 68.224C165.115 68.224 165.147 68.208 165.211 68.176C165.307 68.144 165.355 68.016 165.355 67.792C165.451 67.696 165.547 67.6 165.643 67.504C165.771 67.408 165.835 67.36 165.835 67.36C165.963 67.36 166.123 67.296 166.315 67.168C166.539 67.008 166.907 66.72 167.419 66.304C167.771 66.048 168.091 65.92 168.379 65.92C169.115 65.696 169.707 65.936 170.155 66.64C170.635 67.344 170.875 68.256 170.875 69.376L169.867 71.968L171.595 69.856C171.787 69.6 171.979 69.376 172.171 69.184C172.395 68.992 172.587 68.832 172.747 68.704C172.811 68.48 172.907 68.352 173.035 68.32C173.163 68.288 173.227 68.272 173.227 68.272C173.227 68.272 173.259 68.272 173.323 68.272C173.387 68.24 173.419 68.176 173.419 68.08C173.579 67.952 173.755 67.84 173.947 67.744C174.139 67.616 174.267 67.488 174.331 67.36C174.875 67.136 175.531 67.104 176.299 67.264C177.067 67.392 177.611 67.792 177.931 68.464C178.155 68.848 178.363 69.184 178.555 69.472C178.747 69.76 178.843 70.192 178.843 70.768C178.779 71.248 178.715 71.584 178.651 71.776C178.619 71.968 178.587 72.176 178.555 72.4C178.523 72.592 178.475 72.944 178.411 73.456C178.283 73.712 178.203 73.984 178.171 74.272C178.171 74.56 178.171 74.832 178.171 75.088C178.171 75.504 178.187 75.792 178.219 75.952C178.251 76.08 178.379 76.144 178.603 76.144C179.051 76.048 179.419 75.904 179.707 75.712C180.027 75.488 180.379 75.2 180.763 74.848C181.243 74.4 181.659 74.336 182.011 74.656C182.395 74.944 182.635 75.28 182.731 75.664C182.795 75.792 182.731 76.08 182.539 76.528C182.347 76.976 182.123 77.408 181.867 77.824C181.611 78.24 181.403 78.448 181.243 78.448C181.147 78.448 180.955 78.576 180.667 78.832C180.379 79.088 180.155 79.264 179.995 79.36C179.771 79.584 179.547 79.792 179.323 79.984C179.131 80.176 178.907 80.272 178.651 80.272C178.523 80.272 178.363 80.32 178.171 80.416C178.011 80.48 177.819 80.512 177.595 80.512C177.275 80.608 176.779 80.56 176.107 80.368C175.467 80.176 175.051 79.728 174.859 79.024C174.731 78.672 174.539 78.224 174.283 77.68C174.059 77.136 174.011 76.464 174.139 75.664C174.267 75.088 174.347 74.56 174.379 74.08C174.411 73.6 174.475 73.264 174.571 73.072C174.571 72.976 174.571 72.752 174.571 72.4C174.571 72.016 174.523 71.824 174.427 71.824C174.299 71.824 174.059 71.984 173.707 72.304C173.355 72.624 172.939 73.056 172.459 73.6C171.979 74.112 171.483 74.672 170.971 75.28C170.491 75.888 170.059 76.496 169.675 77.104C169.387 77.456 169.131 77.888 168.907 78.4C168.683 78.912 168.523 79.2 168.427 79.264C168.203 79.52 167.819 79.552 167.275 79.36C166.763 79.168 166.379 78.864 166.123 78.448C166.027 78.256 165.915 78.144 165.787 78.112C165.659 78.048 165.547 77.952 165.451 77.824C165.387 77.664 165.387 77.36 165.451 76.912C165.547 76.464 165.755 75.744 166.075 74.752C166.427 73.664 166.731 72.688 166.987 71.824C167.275 70.928 167.419 70.48 167.419 70.48C167.419 70.352 167.179 70.48 166.699 70.864C166.219 71.216 165.659 71.664 165.019 72.208C164.731 72.56 164.347 73.008 163.867 73.552C163.419 74.096 162.891 74.736 162.283 75.472C161.707 76.208 161.051 77.072 160.315 78.064C159.387 79.376 158.683 80.176 158.203 80.464C157.755 80.752 157.355 80.672 157.003 80.224Z" fill="#C17E61"/>
<g filter="url(#filter1_d_158_97)">
<rect x="54" y="6" width="38" height="14" rx="5" fill="#9F5F43"/>
</g>
<g filter="url(#filter2_d_158_97)">
<rect x="135" y="6" width="38" height="14" rx="5" fill="#9F5F43"/>
</g>
<defs>
<filter id="filter0_d_158_97" x="0" y="9" width="228" height="101" filterUnits="userSpaceOnUse" color-interpolation-filters="sRGB">
<feFlood flood-opacity="0" result="BackgroundImageFix"/>
<feColorMatrix in="SourceAlpha" type="matrix" values="0 0 0 0 0 0 0 0 0 0 0 0 0 0 0 0 0 0 127 0" result="hardAlpha"/>
<feOffset dy="-15"/>
<feComposite in2="hardAlpha" operator="out"/>
<feColorMatrix type="matrix" values="0 0 0 0 1 0 0 0 0 0.924167 0 0 0 0 0.729167 0 0 0 1 0"/>
<feBlend mode="normal" in2="BackgroundImageFix" result="effect1_dropShadow_158_97"/>
<feBlend mode="normal" in="SourceGraphic" in2="effect1_dropShadow_158_97" result="shape"/>
</filter>
<filter id="filter1_d_158_97" x="54" y="0" width="38" height="20" filterUnits="userSpaceOnUse" color-interpolation-filters="sRGB">
<feFlood flood-opacity="0" result="BackgroundImageFix"/>
<feColorMatrix in="SourceAlpha" type="matrix" values="0 0 0 0 0 0 0 0 0 0 0 0 0 0 0 0 0 0 127 0" result="hardAlpha"/>
<feOffset dy="-6"/>
<feComposite in2="hardAlpha" operator="out"/>
<feColorMatrix type="matrix" values="0 0 0 0 0.758333 0 0 0 0 0.495129 0 0 0 0 0.382326 0 0 0 1 0"/>
<feBlend mode="normal" in2="BackgroundImageFix" result="effect1_dropShadow_158_97"/>
<feBlend mode="normal" in="SourceGraphic" in2="effect1_dropShadow_158_97" result="shape"/>
</filter>
<filter id="filter2_d_158_97" x="135" y="0" width="38" height="20" filterUnits="userSpaceOnUse" color-interpolation-filters="sRGB">
<feFlood flood-opacity="0" result="BackgroundImageFix"/>
<feColorMatrix in="SourceAlpha" type="matrix" values="0 0 0 0 0 0 0 0 0 0 0 0 0 0 0 0 0 0 127 0" result="hardAlpha"/>
<feOffset dy="-6"/>
<feComposite in2="hardAlpha" operator="out"/>
<feColorMatrix type="matrix" values="0 0 0 0 0.758333 0 0 0 0 0.495129 0 0 0 0 0.382326 0 0 0 1 0"/>
<feBlend mode="normal" in2="BackgroundImageFix" result="effect1_dropShadow_158_97"/>
<feBlend mode="normal" in="SourceGraphic" in2="effect1_dropShadow_158_97" result="shape"/>
</filter>
</defs>
</svg>
