<svg width="228" height="234" viewBox="0 0 228 234" fill="none" xmlns="http://www.w3.org/2000/svg">
<g filter="url(#filter0_d_133_3067)">
<rect x="15" y="163" width="198" height="56" rx="28" fill="white"/>
<rect x="7.5" y="155.5" width="213" height="71" rx="35.5" stroke="#FFF5DA" stroke-width="15"/>
</g>
<g filter="url(#filter1_d_133_3067)">
<ellipse cx="113.5" cy="95.6416" rx="60.7116" ry="60.6416" fill="white"/>
<path d="M113.5 163.783C151.164 163.783 181.712 133.283 181.712 95.6416C181.712 57.9999 151.164 27.5 113.5 27.5C75.8361 27.5 45.2886 57.9999 45.2886 95.6416C45.2886 133.283 75.8361 163.783 113.5 163.783Z" stroke="#FFF5DA" stroke-width="15"/>
</g>
<ellipse cx="113.5" cy="95.6416" rx="10.7368" ry="10.7244" fill="#FFECBA"/>
<path d="M55.486 208.256C55.262 208.224 54.958 208.08 54.574 207.824C54.19 207.568 53.806 207.28 53.422 206.96C53.038 206.672 52.75 206.448 52.558 206.288C52.334 205.744 52.174 205.328 52.078 205.04C51.982 204.752 51.982 204.272 52.078 203.6C52.078 203.216 52.11 202.768 52.174 202.256C52.27 201.744 52.43 201.328 52.654 201.008C52.878 200.368 53.23 199.616 53.71 198.752C54.222 197.888 54.766 197.024 55.342 196.16C55.95 195.296 56.51 194.512 57.022 193.808C57.566 193.072 57.966 192.544 58.222 192.224C58.574 191.776 58.734 191.408 58.702 191.12C58.702 190.8 58.382 190.208 57.742 189.344C57.614 188.992 57.47 188.736 57.31 188.576C57.15 188.384 57.134 188.288 57.262 188.288C57.262 188.288 57.214 188.24 57.118 188.144C57.054 188.016 56.974 187.84 56.878 187.616C56.398 187.168 56.158 186.48 56.158 185.552C56.19 184.624 56.43 183.712 56.878 182.816C57.39 181.664 58.078 180.672 58.942 179.84C59.806 179.008 60.718 178.528 61.678 178.4C62.03 178.432 62.638 178.528 63.502 178.688C64.398 178.848 65.31 179.024 66.238 179.216C67.198 179.408 67.95 179.632 68.494 179.888C68.878 180.048 69.374 180.336 69.982 180.752C70.622 181.168 71.198 181.584 71.71 182C72.222 182.416 72.494 182.72 72.526 182.912C72.526 183.008 72.574 183.12 72.67 183.248C72.798 183.344 72.878 183.472 72.91 183.632C73.102 183.984 73.198 184.464 73.198 185.072C73.23 185.68 73.198 186.272 73.102 186.848C73.006 187.424 72.862 187.856 72.67 188.144C71.87 189.04 71.31 189.552 70.99 189.68C70.83 189.808 70.638 189.968 70.414 190.16C70.222 190.352 69.998 190.48 69.742 190.544C69.582 190.768 69.422 190.96 69.262 191.12C69.134 191.28 69.006 191.36 68.878 191.36C68.75 191.264 68.622 191.216 68.494 191.216C68.366 191.184 68.302 191.232 68.302 191.36C68.302 191.424 68.078 191.568 67.63 191.792C67.214 192.016 66.782 192.208 66.334 192.368C65.886 192.528 65.598 192.576 65.47 192.512C65.47 192.512 65.422 192.512 65.326 192.512C65.23 192.512 65.086 192.576 64.894 192.704C64.478 192.64 64.718 193.152 65.614 194.24C66.35 195.616 66.894 196.944 67.246 198.224C67.63 199.472 67.582 200.432 67.102 201.104C66.494 202.48 65.838 203.616 65.134 204.512C64.43 205.376 63.87 205.792 63.454 205.76C63.454 205.76 63.374 205.808 63.214 205.904C63.086 206 62.942 206.096 62.782 206.192C62.718 206.416 62.574 206.56 62.35 206.624C62.158 206.72 61.982 206.752 61.822 206.72C61.534 206.592 61.038 206.752 60.334 207.2C59.918 207.488 59.374 207.728 58.702 207.92C58.03 208.112 57.374 208.24 56.734 208.304C56.126 208.368 55.71 208.352 55.486 208.256ZM56.59 204.608C56.91 204.64 57.326 204.56 57.838 204.368C58.382 204.176 58.942 203.92 59.518 203.6C60.126 203.28 60.67 202.96 61.15 202.64C62.174 201.84 62.862 201.04 63.214 200.24C63.598 199.44 63.63 198.64 63.31 197.84C63.118 197.456 62.91 197.04 62.686 196.592C62.462 196.144 62.27 195.792 62.11 195.536C61.918 195.248 61.742 195.04 61.582 194.912C61.454 194.784 61.31 194.672 61.15 194.576C61.15 194.576 61.07 194.688 60.91 194.912C60.782 195.104 60.638 195.376 60.478 195.728C60.126 196.176 59.918 196.448 59.854 196.544C59.79 196.64 59.694 196.8 59.566 197.024C59.342 197.248 59.134 197.456 58.942 197.648C58.75 197.84 58.606 197.984 58.51 198.08C58.51 198.176 58.414 198.464 58.222 198.944C58.03 199.392 57.806 199.84 57.55 200.288C56.846 201.504 56.398 202.512 56.206 203.312C56.046 204.112 56.174 204.544 56.59 204.608ZM64.03 188.96C64.702 188.352 65.23 188 65.614 187.904C65.998 187.808 66.286 187.936 66.478 188.288C66.542 188.416 66.846 188.336 67.39 188.048C67.966 187.728 68.51 187.296 69.022 186.752C69.214 186.4 69.262 186.224 69.166 186.224C69.102 186.224 69.038 185.968 68.974 185.456C69.006 185.136 69.006 184.88 68.974 184.688C68.942 184.496 68.798 184.304 68.542 184.112C68.286 183.92 67.822 183.696 67.15 183.44C65.166 182.736 63.646 182.512 62.59 182.768C61.534 182.992 60.798 183.664 60.382 184.784C60.19 185.392 60.094 185.888 60.094 186.272C60.094 186.656 60.222 187.12 60.478 187.664C60.766 187.792 60.958 187.968 61.054 188.192C61.15 188.384 61.198 188.48 61.198 188.48C61.198 188.768 61.326 188.912 61.582 188.912C61.646 189.072 61.87 189.248 62.254 189.44C62.638 189.632 63.23 189.472 64.03 188.96ZM79.5434 193.424C78.8714 193.648 78.3114 193.76 77.8634 193.76C77.4154 193.728 76.9194 193.52 76.3754 193.136C75.7354 192.496 75.5274 191.856 75.7514 191.216C75.9754 190.544 76.5514 189.888 77.4794 189.248C78.1194 188.864 78.5834 188.672 78.8714 188.672C79.1914 188.64 79.6554 188.752 80.2634 189.008C81.3194 189.68 81.7834 190.432 81.6554 191.264C81.5594 192.064 80.8554 192.784 79.5434 193.424ZM76.1834 203.504C75.5114 203.728 74.9514 203.84 74.5034 203.84C74.0554 203.808 73.5594 203.6 73.0154 203.216C72.3754 202.576 72.1674 201.936 72.3914 201.296C72.6154 200.624 73.1914 199.968 74.1194 199.328C74.7594 198.944 75.2234 198.752 75.5114 198.752C75.8314 198.72 76.2954 198.832 76.9034 199.088C77.9594 199.76 78.4234 200.512 78.2954 201.344C78.1994 202.144 77.4954 202.864 76.1834 203.504ZM91.939 205.856C91.715 205.856 91.299 205.776 90.691 205.616C90.115 205.456 89.507 205.264 88.867 205.04C88.259 204.784 87.779 204.512 87.427 204.224C86.339 203.296 85.555 202.272 85.075 201.152C84.595 200 84.307 198.832 84.211 197.648C84.147 196.464 84.195 195.344 84.355 194.288C84.707 192.24 85.443 190.208 86.563 188.192C87.683 186.144 89.027 184.448 90.595 183.104C91.427 182.368 92.259 181.744 93.091 181.232C93.923 180.72 94.819 180.352 95.779 180.128C96.131 180.032 96.627 179.984 97.267 179.984C97.939 179.952 98.387 179.936 98.611 179.936C99.251 179.936 99.955 180.08 100.723 180.368C101.523 180.624 102.211 180.944 102.787 181.328C103.363 181.68 103.651 182.016 103.651 182.336C103.651 182.56 103.635 182.784 103.603 183.008C103.571 183.232 103.427 183.28 103.171 183.152H102.691L103.171 184.592C103.299 184.848 103.411 185.2 103.507 185.648C103.603 186.064 103.651 186.448 103.651 186.8C103.651 187.12 103.603 187.6 103.507 188.24C103.443 188.848 103.331 189.504 103.171 190.208C103.043 190.912 102.899 191.568 102.739 192.176C102.611 192.784 102.483 193.232 102.355 193.52C102.259 193.712 102.195 193.904 102.163 194.096C102.163 194.256 102.163 194.4 102.163 194.528C102.035 194.784 101.827 195.232 101.539 195.872C101.251 196.512 101.043 196.96 100.915 197.216C100.787 197.344 100.675 197.456 100.579 197.552C100.515 197.648 100.547 197.76 100.675 197.888C100.675 197.984 100.595 198.208 100.435 198.56C100.275 198.88 100.099 199.184 99.907 199.472C99.747 199.76 99.619 199.904 99.523 199.904C99.523 199.904 99.475 199.92 99.379 199.952C99.315 199.952 99.283 200 99.283 200.096C99.283 200.224 99.059 200.56 98.611 201.104C98.195 201.648 97.699 202.208 97.123 202.784C96.803 203.104 96.291 203.52 95.587 204.032C94.883 204.512 94.179 204.944 93.475 205.328C92.803 205.68 92.291 205.856 91.939 205.856ZM91.843 201.248C92.195 201.248 92.531 201.2 92.851 201.104C93.171 200.976 93.443 200.8 93.667 200.576C94.243 200.192 94.787 199.68 95.299 199.04C95.843 198.4 96.291 197.664 96.643 196.832C96.995 196.352 97.267 195.856 97.459 195.344C97.683 194.8 98.019 193.888 98.467 192.608C98.723 192.256 98.899 191.824 98.995 191.312C99.091 190.8 99.139 190.368 99.139 190.016C99.139 189.664 99.139 189.184 99.139 188.576C99.171 187.968 99.251 187.456 99.379 187.04C99.379 186.208 99.363 185.728 99.331 185.6C99.299 185.44 99.171 185.232 98.947 184.976C98.819 184.88 98.643 184.784 98.419 184.688C98.227 184.592 98.019 184.544 97.795 184.544C97.571 184.544 97.267 184.608 96.883 184.736C96.531 184.832 96.227 184.96 95.971 185.12C95.747 185.248 95.491 185.264 95.203 185.168C94.947 185.072 94.819 184.944 94.819 184.784C94.819 184.336 94.595 184.368 94.147 184.88C93.731 185.36 93.171 186.032 92.467 186.896C91.891 187.472 91.395 188.064 90.979 188.672C90.595 189.248 90.403 189.6 90.403 189.728C90.403 189.856 90.355 190.016 90.259 190.208C90.163 190.4 90.067 190.624 89.971 190.88C89.811 191.104 89.619 191.472 89.395 191.984C89.171 192.496 88.947 193.008 88.723 193.52C88.531 194 88.403 194.368 88.339 194.624C88.339 194.752 88.339 195.104 88.339 195.68C88.339 196.224 88.339 196.736 88.339 197.216C88.339 197.76 88.355 198.16 88.387 198.416C88.419 198.672 88.467 198.88 88.531 199.04C88.627 199.2 88.755 199.44 88.915 199.76C89.043 199.984 89.235 200.256 89.491 200.576C89.779 200.864 89.971 201.072 90.067 201.2C90.419 201.52 90.643 201.648 90.739 201.584C90.867 201.488 91.235 201.376 91.843 201.248ZM113.548 205.856C113.324 205.856 112.908 205.776 112.3 205.616C111.724 205.456 111.116 205.264 110.476 205.04C109.868 204.784 109.388 204.512 109.036 204.224C107.948 203.296 107.164 202.272 106.684 201.152C106.204 200 105.916 198.832 105.82 197.648C105.756 196.464 105.804 195.344 105.964 194.288C106.316 192.24 107.052 190.208 108.172 188.192C109.292 186.144 110.636 184.448 112.204 183.104C113.036 182.368 113.868 181.744 114.7 181.232C115.532 180.72 116.428 180.352 117.388 180.128C117.74 180.032 118.236 179.984 118.876 179.984C119.548 179.952 119.996 179.936 120.22 179.936C120.86 179.936 121.564 180.08 122.332 180.368C123.132 180.624 123.82 180.944 124.396 181.328C124.972 181.68 125.26 182.016 125.26 182.336C125.26 182.56 125.244 182.784 125.212 183.008C125.18 183.232 125.036 183.28 124.78 183.152H124.3L124.78 184.592C124.908 184.848 125.02 185.2 125.116 185.648C125.212 186.064 125.26 186.448 125.26 186.8C125.26 187.12 125.212 187.6 125.116 188.24C125.052 188.848 124.94 189.504 124.78 190.208C124.652 190.912 124.508 191.568 124.348 192.176C124.22 192.784 124.092 193.232 123.964 193.52C123.868 193.712 123.804 193.904 123.772 194.096C123.772 194.256 123.772 194.4 123.772 194.528C123.644 194.784 123.436 195.232 123.148 195.872C122.86 196.512 122.652 196.96 122.524 197.216C122.396 197.344 122.284 197.456 122.188 197.552C122.124 197.648 122.156 197.76 122.284 197.888C122.284 197.984 122.204 198.208 122.044 198.56C121.884 198.88 121.708 199.184 121.516 199.472C121.356 199.76 121.228 199.904 121.132 199.904C121.132 199.904 121.084 199.92 120.988 199.952C120.924 199.952 120.892 200 120.892 200.096C120.892 200.224 120.668 200.56 120.22 201.104C119.804 201.648 119.308 202.208 118.732 202.784C118.412 203.104 117.9 203.52 117.196 204.032C116.492 204.512 115.788 204.944 115.084 205.328C114.412 205.68 113.9 205.856 113.548 205.856ZM113.452 201.248C113.804 201.248 114.14 201.2 114.46 201.104C114.78 200.976 115.052 200.8 115.276 200.576C115.852 200.192 116.396 199.68 116.908 199.04C117.452 198.4 117.9 197.664 118.252 196.832C118.604 196.352 118.876 195.856 119.068 195.344C119.292 194.8 119.628 193.888 120.076 192.608C120.332 192.256 120.508 191.824 120.604 191.312C120.7 190.8 120.748 190.368 120.748 190.016C120.748 189.664 120.748 189.184 120.748 188.576C120.78 187.968 120.86 187.456 120.988 187.04C120.988 186.208 120.972 185.728 120.94 185.6C120.908 185.44 120.78 185.232 120.556 184.976C120.428 184.88 120.252 184.784 120.028 184.688C119.836 184.592 119.628 184.544 119.404 184.544C119.18 184.544 118.876 184.608 118.492 184.736C118.14 184.832 117.836 184.96 117.58 185.12C117.356 185.248 117.1 185.264 116.812 185.168C116.556 185.072 116.428 184.944 116.428 184.784C116.428 184.336 116.204 184.368 115.756 184.88C115.34 185.36 114.78 186.032 114.076 186.896C113.5 187.472 113.004 188.064 112.588 188.672C112.204 189.248 112.012 189.6 112.012 189.728C112.012 189.856 111.964 190.016 111.868 190.208C111.772 190.4 111.676 190.624 111.58 190.88C111.42 191.104 111.228 191.472 111.004 191.984C110.78 192.496 110.556 193.008 110.332 193.52C110.14 194 110.012 194.368 109.948 194.624C109.948 194.752 109.948 195.104 109.948 195.68C109.948 196.224 109.948 196.736 109.948 197.216C109.948 197.76 109.964 198.16 109.996 198.416C110.028 198.672 110.076 198.88 110.14 199.04C110.236 199.2 110.364 199.44 110.524 199.76C110.652 199.984 110.844 200.256 111.1 200.576C111.388 200.864 111.58 201.072 111.676 201.2C112.028 201.52 112.252 201.648 112.348 201.584C112.476 201.488 112.844 201.376 113.452 201.248ZM135.647 217.184C135.519 217.184 135.327 217.184 135.071 217.184C134.847 217.216 134.655 217.088 134.495 216.8C134.367 216.64 134.175 216.32 133.919 215.84C133.663 215.392 133.615 214.752 133.775 213.92C133.935 213.376 134.063 212.832 134.159 212.288C134.255 211.776 134.303 211.392 134.303 211.136C134.303 211.008 134.335 210.752 134.399 210.368C134.495 210.016 134.543 209.76 134.543 209.6C134.703 209.344 134.831 208.992 134.927 208.544C135.023 208.096 135.071 207.696 135.071 207.344C135.071 206.96 135.263 206.608 135.647 206.288C135.647 206.032 135.695 205.712 135.791 205.328C135.919 204.944 135.983 204.688 135.983 204.56C136.079 204.112 136.287 203.328 136.607 202.208C136.959 201.056 137.375 199.76 137.855 198.32C138.367 196.88 138.863 195.472 139.343 194.096C139.823 192.72 140.255 191.552 140.639 190.592C141.023 189.696 141.343 188.864 141.599 188.096C141.855 187.328 141.983 186.784 141.983 186.464C141.983 186.336 142.015 186.24 142.079 186.176C142.143 186.08 142.287 185.904 142.511 185.648C142.831 185.328 143.247 185.216 143.759 185.312C144.303 185.376 144.751 185.536 145.103 185.792C145.359 186.208 145.535 186.592 145.631 186.944C145.759 187.264 145.759 187.776 145.631 188.48C145.631 188.96 145.519 189.408 145.295 189.824C145.071 190.208 144.863 190.528 144.671 190.784C144.511 191.008 144.463 191.104 144.527 191.072C145.935 190.208 147.199 189.744 148.319 189.68C149.471 189.584 150.431 189.776 151.199 190.256C151.999 190.704 152.607 191.328 153.023 192.128C153.439 192.928 153.647 193.792 153.647 194.72C153.647 195.104 153.519 195.616 153.263 196.256C153.007 196.896 152.719 197.504 152.399 198.08C152.079 198.624 151.823 198.992 151.631 199.184C151.503 199.184 151.375 199.296 151.247 199.52C151.119 199.712 150.991 199.936 150.863 200.192C150.607 200.512 150.175 200.88 149.567 201.296C148.991 201.68 148.399 202 147.791 202.256C147.183 202.48 146.751 202.544 146.495 202.448C146.495 202.448 146.447 202.48 146.351 202.544C146.287 202.608 146.255 202.72 146.255 202.88C146.255 202.944 146.031 203.072 145.583 203.264C145.135 203.456 144.607 203.632 143.999 203.792C143.391 203.952 142.831 204.032 142.319 204.032C141.647 204.032 141.167 203.904 140.879 203.648C140.815 203.712 140.735 203.808 140.639 203.936C140.575 204.064 140.543 204.176 140.543 204.272C140.543 204.464 140.463 204.768 140.303 205.184C140.175 205.6 140.015 205.968 139.823 206.288C139.631 206.64 139.455 206.816 139.295 206.816C139.295 206.816 139.263 206.864 139.199 206.96C139.135 207.056 139.167 207.184 139.295 207.344C139.295 207.344 139.279 207.52 139.247 207.872C139.247 208.256 139.167 208.576 139.007 208.832C139.007 209.088 138.959 209.472 138.863 209.984C138.767 210.496 138.655 210.88 138.527 211.136C138.527 211.52 138.463 211.888 138.335 212.24C138.239 212.624 138.127 212.816 137.999 212.816C137.871 212.848 137.791 213.04 137.759 213.392C137.727 213.776 137.711 214.048 137.711 214.208C137.679 215.008 137.423 215.696 136.943 216.272C136.463 216.88 136.031 217.184 135.647 217.184ZM141.791 200.384C142.047 200.384 142.511 200.272 143.183 200.048C143.855 199.824 144.559 199.552 145.295 199.232C146.031 198.88 146.607 198.528 147.023 198.176C147.855 197.44 148.495 196.72 148.943 196.016C149.423 195.312 149.391 194.528 148.847 193.664C148.591 193.216 148.175 193.04 147.599 193.136C147.055 193.2 146.447 193.456 145.775 193.904C145.103 194.352 144.415 194.912 143.711 195.584C143.327 196 142.975 196.48 142.655 197.024C142.335 197.568 142.063 198.096 141.839 198.608C141.647 199.12 141.535 199.552 141.503 199.904C141.471 200.224 141.567 200.384 141.791 200.384ZM157.003 204.224C156.907 204.096 156.699 203.936 156.379 203.744C156.059 203.552 155.899 203.392 155.899 203.264C155.899 203.2 155.883 203.12 155.851 203.024C155.851 202.928 155.787 202.88 155.659 202.88C155.563 202.784 155.611 202.432 155.803 201.824C156.027 201.216 156.315 200.496 156.667 199.664C157.051 198.832 157.451 198.032 157.867 197.264C158.283 196.464 158.635 195.824 158.923 195.344C159.083 195.248 159.179 195.12 159.211 194.96C159.275 194.768 159.275 194.672 159.211 194.672C159.211 194.672 159.291 194.528 159.451 194.24C159.643 193.92 159.787 193.712 159.883 193.616C160.139 193.168 160.331 192.72 160.459 192.272C160.587 191.792 160.619 191.392 160.555 191.072C160.427 190.912 160.283 190.864 160.123 190.928C159.963 190.992 159.883 191.024 159.883 191.024C159.755 191.056 159.563 191.12 159.307 191.216C159.083 191.28 158.875 191.376 158.683 191.504C157.947 192.016 157.403 192.272 157.051 192.272C156.731 192.272 156.411 191.888 156.091 191.12C155.963 190.768 155.915 190.432 155.947 190.112C155.979 189.792 156.107 189.536 156.331 189.344C156.587 189.12 156.907 188.896 157.291 188.672C157.675 188.416 157.931 188.24 158.059 188.144C158.411 187.92 158.907 187.68 159.547 187.424C160.187 187.168 160.571 187.024 160.699 186.992C161.531 186.736 162.235 186.736 162.811 186.992C163.387 187.216 163.819 187.664 164.107 188.336C164.555 188.88 164.779 189.456 164.779 190.064C164.779 190.672 164.555 191.424 164.107 192.32L163.627 193.04C163.467 193.36 163.435 193.52 163.531 193.52C163.659 193.52 163.803 193.408 163.963 193.184C164.059 193.056 164.251 192.864 164.539 192.608C164.827 192.352 165.019 192.224 165.115 192.224C165.115 192.224 165.147 192.208 165.211 192.176C165.307 192.144 165.355 192.016 165.355 191.792C165.451 191.696 165.547 191.6 165.643 191.504C165.771 191.408 165.835 191.36 165.835 191.36C165.963 191.36 166.123 191.296 166.315 191.168C166.539 191.008 166.907 190.72 167.419 190.304C167.771 190.048 168.091 189.92 168.379 189.92C169.115 189.696 169.707 189.936 170.155 190.64C170.635 191.344 170.875 192.256 170.875 193.376L169.867 195.968L171.595 193.856C171.787 193.6 171.979 193.376 172.171 193.184C172.395 192.992 172.587 192.832 172.747 192.704C172.811 192.48 172.907 192.352 173.035 192.32C173.163 192.288 173.227 192.272 173.227 192.272C173.227 192.272 173.259 192.272 173.323 192.272C173.387 192.24 173.419 192.176 173.419 192.08C173.579 191.952 173.755 191.84 173.947 191.744C174.139 191.616 174.267 191.488 174.331 191.36C174.875 191.136 175.531 191.104 176.299 191.264C177.067 191.392 177.611 191.792 177.931 192.464C178.155 192.848 178.363 193.184 178.555 193.472C178.747 193.76 178.843 194.192 178.843 194.768C178.779 195.248 178.715 195.584 178.651 195.776C178.619 195.968 178.587 196.176 178.555 196.4C178.523 196.592 178.475 196.944 178.411 197.456C178.283 197.712 178.203 197.984 178.171 198.272C178.171 198.56 178.171 198.832 178.171 199.088C178.171 199.504 178.187 199.792 178.219 199.952C178.251 200.08 178.379 200.144 178.603 200.144C179.051 200.048 179.419 199.904 179.707 199.712C180.027 199.488 180.379 199.2 180.763 198.848C181.243 198.4 181.659 198.336 182.011 198.656C182.395 198.944 182.635 199.28 182.731 199.664C182.795 199.792 182.731 200.08 182.539 200.528C182.347 200.976 182.123 201.408 181.867 201.824C181.611 202.24 181.403 202.448 181.243 202.448C181.147 202.448 180.955 202.576 180.667 202.832C180.379 203.088 180.155 203.264 179.995 203.36C179.771 203.584 179.547 203.792 179.323 203.984C179.131 204.176 178.907 204.272 178.651 204.272C178.523 204.272 178.363 204.32 178.171 204.416C178.011 204.48 177.819 204.512 177.595 204.512C177.275 204.608 176.779 204.56 176.107 204.368C175.467 204.176 175.051 203.728 174.859 203.024C174.731 202.672 174.539 202.224 174.283 201.68C174.059 201.136 174.011 200.464 174.139 199.664C174.267 199.088 174.347 198.56 174.379 198.08C174.411 197.6 174.475 197.264 174.571 197.072C174.571 196.976 174.571 196.752 174.571 196.4C174.571 196.016 174.523 195.824 174.427 195.824C174.299 195.824 174.059 195.984 173.707 196.304C173.355 196.624 172.939 197.056 172.459 197.6C171.979 198.112 171.483 198.672 170.971 199.28C170.491 199.888 170.059 200.496 169.675 201.104C169.387 201.456 169.131 201.888 168.907 202.4C168.683 202.912 168.523 203.2 168.427 203.264C168.203 203.52 167.819 203.552 167.275 203.36C166.763 203.168 166.379 202.864 166.123 202.448C166.027 202.256 165.915 202.144 165.787 202.112C165.659 202.048 165.547 201.952 165.451 201.824C165.387 201.664 165.387 201.36 165.451 200.912C165.547 200.464 165.755 199.744 166.075 198.752C166.427 197.664 166.731 196.688 166.987 195.824C167.275 194.928 167.419 194.48 167.419 194.48C167.419 194.352 167.179 194.48 166.699 194.864C166.219 195.216 165.659 195.664 165.019 196.208C164.731 196.56 164.347 197.008 163.867 197.552C163.419 198.096 162.891 198.736 162.283 199.472C161.707 200.208 161.051 201.072 160.315 202.064C159.387 203.376 158.683 204.176 158.203 204.464C157.755 204.752 157.355 204.672 157.003 204.224Z" fill="#C17E61"/>
<path d="M110.069 52.73C103.999 68.8508 106.184 77.0814 109.335 80.4716C110.575 81.8064 112.588 81.1258 113.505 79.551C121.313 66.1379 118.997 56.7125 115.269 51.6234C113.796 49.6116 110.948 50.3963 110.069 52.73Z" fill="#FFECBA"/>
<path d="M95.8416 101.616C82.3516 102.819 77.6376 107.559 76.6282 111.313C76.1976 112.914 77.6121 114.229 79.2667 114.384C91.7135 115.55 97.2276 110.315 99.1891 105.485C100.054 103.355 98.1355 101.411 95.8416 101.616Z" fill="#FFECBA"/>
<defs>
<filter id="filter0_d_133_3067" x="0" y="133" width="228" height="101" filterUnits="userSpaceOnUse" color-interpolation-filters="sRGB">
<feFlood flood-opacity="0" result="BackgroundImageFix"/>
<feColorMatrix in="SourceAlpha" type="matrix" values="0 0 0 0 0 0 0 0 0 0 0 0 0 0 0 0 0 0 127 0" result="hardAlpha"/>
<feOffset dy="-15"/>
<feComposite in2="hardAlpha" operator="out"/>
<feColorMatrix type="matrix" values="0 0 0 0 1 0 0 0 0 0.924167 0 0 0 0 0.729167 0 0 0 1 0"/>
<feBlend mode="normal" in2="BackgroundImageFix" result="effect1_dropShadow_133_3067"/>
<feBlend mode="normal" in="SourceGraphic" in2="effect1_dropShadow_133_3067" result="shape"/>
</filter>
<filter id="filter1_d_133_3067" x="37.7886" y="0" width="151.423" height="171.283" filterUnits="userSpaceOnUse" color-interpolation-filters="sRGB">
<feFlood flood-opacity="0" result="BackgroundImageFix"/>
<feColorMatrix in="SourceAlpha" type="matrix" values="0 0 0 0 0 0 0 0 0 0 0 0 0 0 0 0 0 0 127 0" result="hardAlpha"/>
<feOffset dy="-20"/>
<feComposite in2="hardAlpha" operator="out"/>
<feColorMatrix type="matrix" values="0 0 0 0 1 0 0 0 0 0.924167 0 0 0 0 0.729167 0 0 0 1 0"/>
<feBlend mode="normal" in2="BackgroundImageFix" result="effect1_dropShadow_133_3067"/>
<feBlend mode="normal" in="SourceGraphic" in2="effect1_dropShadow_133_3067" result="shape"/>
</filter>
</defs>
</svg>
