<svg xmlns="http://www.w3.org/2000/svg" width="101" height="100" viewBox="0 0 101 100" fill="none">
  <path d="M51.5209 56.3973C52.2062 60.1165 54.6227 62.6122 57.2105 63.4699C59.2777 64.1551 61.5386 64.0682 63.7877 63.1212C65.0129 62.6053 66.1452 61.7127 67.2509 60.6899C67.5134 60.4471 67.9116 60.227 68.0981 59.878" stroke="#C17E61" stroke-width="3" stroke-linecap="round"/>
  <path d="M50.5585 38.8715C46.3953 38.7498 42.256 38.1838 38.0916 38.1135C37.1288 38.0972 34.8135 37.5946 34.3654 38.8435C33.7937 40.4367 34.0729 42.5434 34.116 44.2058C34.1762 46.5221 34.3123 48.3125 36.6233 49.2313C38.9324 50.1493 41.3673 49.9893 43.7987 49.9893C47.036 49.9893 50.2977 50.0728 53.5229 49.7226C54.9874 49.5636 57.0348 49.1828 58.1495 48.1083C59.4096 46.8936 59.3976 45.0127 60.0611 43.4759C61.369 40.4462 64.0253 38.4115 67.2919 38.3662C71.2357 38.3114 75.2101 38.2759 79.1493 38.4785C81.2035 38.5841 85.0186 37.9144 85.3273 40.6403C86.6418 52.2488 73.6463 47.2099 67.2641 47.2099" stroke="#C17E61" stroke-width="3" stroke-linecap="round"/>
  <path d="M47.5901 32C47.5901 35.6504 46.6201 39.4073 46.6201 43" stroke="#C17E61" stroke-width="3" stroke-linecap="round"/>
  <path d="M74.75 33C74.75 35.6596 74.75 38.3128 74.75 40.9861C74.75 41.4652 74.75 41.628 74.75 42" stroke="#C17E61" stroke-width="3" stroke-linecap="round"/>
  <path d="M31.1001 38C34.2799 33.9724 36.7739 29.4981 39.5479 25.1565C42.2491 20.929 45.7595 17.4808 49.9244 14.8025C52.0102 13.4613 54.6782 12.6845 57.0684 12.1433C57.7925 11.9794 60.8189 11.8078 61.1701 12.5394" stroke="#C17E61" stroke-width="3" stroke-linecap="round"/>
  <path d="M63.1101 15C67.3804 15 70.6788 15.7647 74.5392 17.843C77.4786 19.4254 79.7198 21.588 81.6666 24.2889C83.0695 26.235 84.1648 28.1248 84.8718 30.4252C85.2613 31.6923 86.0946 32.6685 86.3901 34" stroke="#C17E61" stroke-width="3" stroke-linecap="round"/>
  <path d="M27.2201 38.7875C25.5726 36.026 23.2109 34.2755 20.2287 34.0141C16.2717 33.6673 15.8982 39.8027 15.6518 43.0273C15.3184 47.3916 16.0677 50.5655 19.5787 53.0782C20.9541 54.0625 22.3379 54.2218 23.877 53.7304" stroke="#C17E61" stroke-width="3" stroke-linecap="round"/>
  <path d="M55.35 2.00948C49.5237 2.00948 43.6483 1.79303 37.9513 3.42892C33.617 4.67351 29.977 7.13975 26.6394 10.463C22.0471 15.0355 17.4531 20.1817 14.8271 26.55C12.5473 32.0789 11.0277 38.1758 9.76873 44.088C8.89339 48.1988 8.19341 52.0127 6.82262 55.9798C4.77272 61.9122 2.37843 67.8435 2.02825 74.2906C1.65845 81.0988 4.97239 87.3226 8.86544 92.2228C10.4606 94.2307 12.3715 96.5283 14.6604 97.5063C16.264 98.1914 18.1483 97.9637 19.83 97.9637" stroke="#C17E61" stroke-width="3" stroke-linecap="round"/>
  <path d="M28.1899 62.0246C30.7631 67.4212 33.6846 72.9301 37.3442 77.637C40.7673 82.0397 46.9348 83.1365 52.0391 83.9909C55.6975 84.6033 59.4066 84.9206 63.1122 84.9875C65.3387 85.0276 67.6245 85.0042 69.791 84.4083C73.9563 83.2624 77.8573 80.5107 81.0053 77.5518C83.644 75.0717 86.5524 72.1686 88.1327 68.8215C89.8001 65.2899 90.6232 60.5471 90.1263 56.6417C89.6115 52.5942 87.2433 49.6134 84.4112 47" stroke="#C17E61" stroke-width="3" stroke-linecap="round"/>
  <path d="M62.1399 2C71.5107 2.84616 80.9592 7.34613 85.7091 16.9333C88.7429 23.0566 92.1091 29.6551 93.3677 36.6182C94.5769 43.3072 95.6613 49.9166 97.2253 56.5131C98.3429 61.2266 98.5059 66.5016 98.6383 71.3495C98.769 76.1317 99.339 81.5765 98.709 86.3636C98.4055 88.6692 96.771 90.5763 95.4873 92.2465C94.2815 93.8152 93.0481 95.4353 91.3895 96.3838C90.5383 96.8706 89.0372 98 88.083 98" stroke="#C17E61" stroke-width="3" stroke-linecap="round"/>
</svg>