<svg xmlns="http://www.w3.org/2000/svg" width="101" height="96" viewBox="0 0 101 96" fill="none">
  <path d="M82.5398 45.6873C85.9581 44.2588 88.7779 43.6032 92.552 44.4737C95.3838 45.1269 97.1285 46.6889 98.0208 49.0782C98.9216 51.4898 99.3244 55.3802 98.6939 57.8766C97.7202 61.7321 89.4824 64.6675 85.3794 65.3901C83.3481 65.7478 81.2017 65.6042 79.1323 65.6042" stroke="#67A3DA" stroke-width="3" stroke-linecap="round"/>
  <path d="M8.67418 43C4.71461 47.6113 2.20152 52.2123 2.10251 58.0065C2.05734 60.65 2.10251 63.2973 2.10251 65.9411C2.10251 69.1782 1.6587 72.7407 2.61794 75.9016C4.89549 83.4068 13.1015 88.4865 20.9585 90.9456C28.7963 93.3987 36.8682 92.9715 45.0546 92.9715C51.0303 92.9715 52.1639 90.9441 57.5 88.5C61 86 64 84.5 68.5 82C71.5 80 76.5094 73.9994 77 71C77.2383 69.5427 77.0968 71.8655 77.0968 70.3493" stroke="#67A3DA" stroke-width="3" stroke-linecap="round"/>
  <path d="M27.7109 67.2692C32.766 68.9251 37.788 70.8368 42.947 68.3737C45.1446 67.3245 46.9242 65.9647 48.7471 64.6531" stroke="#67A3DA" stroke-width="3" stroke-linecap="round"/>
  <path d="M13.9102 36.9162C10.4632 36.7574 7.43225 36.1444 5.14018 38.8301C3.67586 40.5459 2.2527 42.4147 2.01721 44.572C1.49688 49.3386 12.926 47.7437 16.2203 47.7437C18.1123 47.7437 20.7244 48.1156 22.5518 47.5249C23.8969 47.0902 25.3529 45.7695 26.4234 44.9365C28.688 43.1746 29.308 41.3574 32.1988 40.3431C33.8351 39.7689 36.4406 39.5341 38.1667 40.015C39.1296 40.2832 40.5406 40.8895 41.2255 41.5461C42.3262 42.6014 41.927 44.0579 43.172 45.1188C44.2284 46.019 45.1458 46.6902 46.68 46.8323C51.3598 47.2657 56.5155 47.6196 61.2253 47.4156C65.8039 47.2172 75.6912 41.6397 68.2841 38.1557C61.4381 34.9357 51.9634 35.2757 44.327 35.2757" stroke="#67A3DA" stroke-width="3" stroke-linecap="round"/>
  <path d="M21.8677 33.3062C22.3225 35.9083 22.6589 38.5281 23.0364 41.1429" stroke="#67A3DA" stroke-width="3" stroke-linecap="round"/>
  <path d="M58.0961 32.3265C57.6435 35.9412 56.8922 39.5161 55.7588 43.102" stroke="#67A3DA" stroke-width="3" stroke-linecap="round"/>
  <path d="M48.7469 10.069C41.8146 8.09429 34.8846 6.11446 27.9521 4.14045C26.2307 3.65029 24.5111 3.15608 22.7855 2.67535C21.8777 2.42245 20.6364 1.59057 19.9771 2.14724C19.0941 2.89284 19.8056 6.1939 19.8056 7.17285C19.8056 9.9338 20.0299 10.3485 16.2469 10.3756C13.4062 10.3959 10.1065 9.4483 9.85843 12.3177C9.7353 13.742 9.94405 14.9748 10.2872 16.3382C10.3826 16.7172 10.1233 17.1003 10.0299 17.4796C9.05899 21.4232 8.57486 25.415 7.84326 29.3877" stroke="#67A3DA" stroke-width="3" stroke-linecap="round"/>
  <path d="M51.0845 10.9518C55.3474 10.9518 60.3893 10.3305 64.5239 11.4207C67.6922 12.256 70.7772 13.6346 73.8731 14.667C76.946 15.6918 80.5427 16.6288 83.0762 18.5446C87.8724 22.1715 89.3994 29.1474 89.3994 34.4337C89.3994 36.3215 90.165 39.6634 89.0237 41.1429" stroke="#67A3DA" stroke-width="3" stroke-linecap="round"/>
  <path d="M28.8794 21.551C31.6697 23.8432 35.9421 25.3818 39.5862 26.2052C43.5939 27.1109 42.4694 25.3587 43.1552 23.1635C43.547 21.9093 48.7375 22.9814 49.3593 23.0352C53.0847 23.3578 56.7624 23.53 60.5019 23.53C62.0374 23.53 63.5728 23.53 65.1083 23.53" stroke="#67A3DA" stroke-width="3" stroke-linecap="round"/>
  <path d="M69.7832 25.4694C70.1645 29.1623 70.9523 36.2637 75.6266 38.2041" stroke="#67A3DA" stroke-width="3" stroke-linecap="round"/>
  <path d="M70.0244 52.0471C69.1767 52.3259 70.7543 53.8137 71.8095 52.0471C72.7314 50.504 71.362 50.8161 70.8277 51.5188" stroke="#67A3DA" stroke-width="3" stroke-linecap="round"/>
</svg>